<?xml version="1.0" encoding="utf-8"?>
<!-- Generator: Adobe Illustrator 25.0.0, SVG Export Plug-In . SVG Version: 6.00 Build 0)  -->
<svg version="1.1" id="图层_1" xmlns="http://www.w3.org/2000/svg" xmlns:xlink="http://www.w3.org/1999/xlink" x="0px" y="0px"
	 viewBox="0 0 150 150" style="enable-background:new 0 0 150 150;" xml:space="preserve">
<style type="text/css">
	.st0{fill:#332E2D;}
	.st1{fill:#F8B6A8;}
	.st2{fill:#E88879;}
	.st3{fill:#F47664;}
	.st4{fill:#EF9943;}
	.st5{fill:#DD8A2F;}
	.st6{fill:#FFFFFF;}
</style>
<g>
	<g>
		<ellipse class="st0" cx="73.79" cy="63.31" rx="51.67" ry="47.77"/>
	</g>
	<g>
		<ellipse class="st1" cx="73.79" cy="66.54" rx="47.86" ry="56.3"/>
	</g>
	<g>
		<path class="st0" d="M50.01,61.28c45.97-1,49.33-30.14,49.33-30.14c1.94,30.88,29.98,30.14,29.98,30.14
			C127.53,27.65,103.36,1,73.79,1C44.22,1,20.04,27.65,18.26,61.28h3.19c23.01-0.57,22.41-15.37,22.41-15.37l0.68,15.37H50.01z"/>
	</g>
	<g>
		<g>
			<g>
				
					<ellipse transform="matrix(0.9842 -0.1772 0.1772 0.9842 -14.5598 5.7989)" class="st1" cx="25.19" cy="84.42" rx="10.68" ry="12.41"/>
			</g>
			<g>
				<path class="st2" d="M28.6,92.12c-4.32,0.78-8.47-2.16-9.26-6.56c-0.79-4.4,2.07-8.6,6.39-9.37"/>
			</g>
		</g>
		<g>
			<g>
				
					<ellipse transform="matrix(0.2246 -0.9745 0.9745 0.2246 12.6356 184.6644)" class="st1" cx="122.35" cy="84.39" rx="12.41" ry="10.68"/>
			</g>
			<g>
				<path class="st2" d="M118.57,91.92c4.28,0.99,8.56-1.75,9.56-6.1c1-4.36-1.65-8.69-5.93-9.67"/>
			</g>
		</g>
	</g>
	<g>
		<g>
			<g>
				<g>
					<path class="st0" d="M63.32,71.41H42.7c-0.82,0-1.49-0.67-1.49-1.49v-4.75c0-0.82,0.67-1.49,1.49-1.49h20.62
						c0.82,0,1.49,0.67,1.49,1.49v4.75C64.81,70.74,64.14,71.41,63.32,71.41z"/>
				</g>
			</g>
			<g>
				<g>
					<path class="st0" d="M104.88,71.41H84.26c-0.82,0-1.49-0.67-1.49-1.49v-4.75c0-0.82,0.67-1.49,1.49-1.49h20.62
						c0.82,0,1.49,0.67,1.49,1.49v4.75C106.36,70.74,105.7,71.41,104.88,71.41z"/>
				</g>
			</g>
		</g>
		<g>
			<path class="st0" d="M53.01,80.8c-1.19,0-2.15-0.96-2.15-2.15v-6.23c0-1.19,0.96-2.15,2.15-2.15s2.15,0.96,2.15,2.15v6.23
				C55.16,79.84,54.2,80.8,53.01,80.8z"/>
		</g>
		<g>
			<path class="st0" d="M94.57,80.8c-1.19,0-2.15-0.96-2.15-2.15v-6.23c0-1.19,0.96-2.15,2.15-2.15s2.15,0.96,2.15,2.15v6.23
				C96.72,79.84,95.75,80.8,94.57,80.8z"/>
		</g>
	</g>
	<g>
		<path class="st2" d="M75.23,99.02h-2.89c-1.84,0-3.34-1.49-3.34-3.34V78.97c0-1.84,1.49-3.34,3.34-3.34h2.89
			c1.84,0,3.34,1.49,3.34,3.34v16.71C78.57,97.53,77.08,99.02,75.23,99.02z"/>
	</g>
	<g>
		<path class="st3" d="M73.66,112.85c-3.31,0-7.1-0.87-11.03-3.48c-0.82-0.55-1.05-1.66-0.5-2.48c0.55-0.82,1.66-1.05,2.48-0.5
			c9.68,6.42,18.17,0.15,18.25,0.08c0.79-0.6,1.91-0.44,2.51,0.35c0.6,0.79,0.44,1.91-0.35,2.51
			C84.96,109.38,80.27,112.85,73.66,112.85z"/>
	</g>
	<g>
		<path class="st4" d="M88.93,125.74c-1.36,7.84-7.67,13.97-15.14,13.97s-13.88-6.12-15.24-13.97
			c-16.95,3.62-28.86,13.38-28.86,24.6h88.2C117.89,139.11,105.88,129.36,88.93,125.74z"/>
	</g>
	<g>
		<path class="st5" d="M92.68,126.69c-5.61-1.7-12.7-2.22-19.02-2.22s-13.25,0.6-18.77,2.12c0.94,9.11,9.88,15.51,19.24,15.51
			S91.74,135.8,92.68,126.69z"/>
	</g>
	<g>
		<path class="st1" d="M88.98,125.74c-4.75-0.83-9.78-1.48-15.14-1.48c-5.36,0-10.49,0.65-15.24,1.48c0.8,6.24,7.32,10.9,15.24,10.9
			S88.18,131.97,88.98,125.74z"/>
	</g>
	<g>
		<rect x="66.03" y="117.16" class="st1" width="15.51" height="10.79"/>
	</g>
	<g>
		<rect x="69.75" y="141.39" class="st5" width="8.07" height="8.95"/>
	</g>
	<g>
		<circle class="st6" cx="73.79" cy="145.87" r="1.59"/>
	</g>
</g>
</svg>
